<?xml version="1.0" encoding="utf-8"?>
<svg viewBox="57.239 128.508 383.839 100.449" xmlns="http://www.w3.org/2000/svg">
  <defs>
    <linearGradient id="editing-gradient-gradient" x1="0" x2="1" y1="0.5" y2="0.5" gradientUnits="objectBoundingBox">
      <stop offset="0" stop-color="#f0f"/>
      <stop offset="1" stop-color="#00ffa0"/>
    </linearGradient>
  </defs>
  <g transform="matrix(1, 0, 0, 1, -23.404291, 81.471764)">
    <g transform="translate(82.49969482421875, 123.22999954223633)">
      <path d="M18.02 0L18.02-68.90L0-68.90L0-74.20L42.61-74.20L42.61-68.90L23.96-68.90L23.96 0L18.02 0ZM80.14 0L80.56-5.41L80.56-5.41Q78.02-2.23 74.15-0.53L74.15-0.53L74.15-0.53Q70.28 1.17 66.36 1.17L66.36 1.17L66.36 1.17Q46.43 1.17 46.43-18.23L46.43-18.23L46.43-53.11L52.36-53.11L52.36-17.49L52.36-17.49Q52.36-10.71 56.13-7.42L56.13-7.42L56.13-7.42Q59.89-4.13 66.36-4.13L66.36-4.13L66.36-4.13Q72.72-4.13 76.37-7.37L76.37-7.37L76.37-7.37Q80.03-10.60 80.03-17.49L80.03-17.49L80.03-53.11L85.97-53.11L85.97 0L80.14 0ZM96.46 0L96.46-53.11L102.40-53.11L102.08-49.40L102.08-49.40Q107.06-54.06 115.12-54.06L115.12-54.06L115.12-54.06Q117.98-54.06 122.96-53.11L122.96-53.11L121.37-47.70L121.37-47.70Q117.98-48.76 114.27-48.76L114.27-48.76L114.27-48.76Q109.39-48.76 105.89-46.96L105.89-46.96L105.89-46.96Q102.40-45.16 102.40-41.55L102.40-41.55L102.40 0L96.46 0ZM165.36 0L165.36-36.36L165.36-36.36Q165.36-42.82 161.60-45.74L161.60-45.74L161.60-45.74Q157.83-48.65 151.90-48.65L151.90-48.65L151.90-48.65Q148.29-48.65 144.58-47.65L144.58-47.65L144.58-47.65Q140.87-46.64 138.01-45.05L138.01-45.05L138.01 0L132.08 0L132.08-53.11L138.01-53.11L137.59-49.50L137.59-49.50Q140.13-51.73 144.05-52.84L144.05-52.84L144.05-52.84Q147.98-53.95 152.22-53.95L152.22-53.95L152.22-53.95Q158.05-53.95 162.18-52.05L162.18-52.05L162.18-52.05Q166.42-50.14 168.81-46.32L168.81-46.32L168.81-46.32Q171.19-42.51 171.19-36.68L171.19-36.68L171.19 0L165.36 0ZM226.73 0L218.25-25.97L194.09-25.97L185.82 0L179.56 0L203.31-74.20L208.93-74.20L233.09 0L226.73 0ZM206.06-64.98L195.78-31.80L216.66-31.80L206.06-64.98ZM242.42 22.26L242.42-53.11L248.36-53.11L247.83-47.70L247.83-47.70Q250.69-50.77 254.56-52.36L254.56-52.36L254.56-52.36Q258.43-53.95 262.24-53.95L262.24-53.95L262.24-53.95Q272.10-53.95 277.24-48.23L277.24-48.23L277.24-48.23Q282.38-42.51 282.38-33.39L282.38-33.39L282.38-18.66L282.38-18.66Q282.38-9.01 276.98-3.87L276.98-3.87L276.98-3.87Q271.57 1.27 262.67 1.27L262.67 1.27L262.67 1.27Q258.11 1.27 254.61 0L254.61 0L254.61 0Q251.11-1.27 248.36-4.45L248.36-4.45L248.36 19.93L242.42 22.26ZM276.45-33.81L276.45-33.81Q276.45-41.55 272.37-45.05L272.37-45.05L272.37-45.05Q268.29-48.55 262.67-48.55L262.67-48.55L262.67-48.55Q256.94-48.55 252.81-45.10L252.81-45.10L252.81-45.10Q248.68-41.66 248.36-34.34L248.36-34.34L248.36-17.60L248.36-17.60Q248.36-10.71 252.28-7.42L252.28-7.42L252.28-7.42Q256.20-4.13 262.67-4.13L262.67-4.13L262.67-4.13Q268.50-4.13 272.47-7.58L272.47-7.58L272.47-7.58Q276.45-11.02 276.45-17.60L276.45-17.60L276.45-33.81ZM294.15 22.26L294.15-53.11L300.09-53.11L299.56-47.70L299.56-47.70Q302.42-50.77 306.29-52.36L306.29-52.36L306.29-52.36Q310.16-53.95 313.97-53.95L313.97-53.95L313.97-53.95Q323.83-53.95 328.97-48.23L328.97-48.23L328.97-48.23Q334.11-42.51 334.11-33.39L334.11-33.39L334.11-18.66L334.11-18.66Q334.11-9.01 328.71-3.87L328.71-3.87L328.71-3.87Q323.30 1.27 314.40 1.27L314.40 1.27L314.40 1.27Q309.84 1.27 306.34 0L306.34 0L306.34 0Q302.84-1.27 300.09-4.45L300.09-4.45L300.09 19.93L294.15 22.26ZM328.18-33.81L328.18-33.81Q328.18-41.55 324.10-45.05L324.10-45.05L324.10-45.05Q320.01-48.55 314.40-48.55L314.40-48.55L314.40-48.55Q308.67-48.55 304.54-45.10L304.54-45.10L304.54-45.10Q300.40-41.66 300.09-34.34L300.09-34.34L300.09-17.60L300.09-17.60Q300.09-10.71 304.01-7.42L304.01-7.42L304.01-7.42Q307.93-4.13 314.40-4.13L314.40-4.13L314.40-4.13Q320.23-4.13 324.20-7.58L324.20-7.58L324.20-7.58Q328.18-11.02 328.18-17.60L328.18-17.60L328.18-33.81Z" fill="url(#editing-gradient-gradient)"/>
    </g>
  </g>
  <g id="_68.calendar" data-name="68.calendar" transform="matrix(2.147843, 0, 0, 2.504948, 401.554779, 145.024796)" style=""/>
  <g id="g-1" data-name="68.calendar" transform="matrix(1.612184, 0, 0, 1.739721, 398.723358, 130.638504)" style="">
    <rect class="cls-1" x="1" y="3" width="22" height="20" rx="3" ry="3" style="fill: none; stroke: rgb(105, 150, 199); stroke-linecap: round; stroke-linejoin: round; stroke-width: 2px;"/>
    <line class="cls-1" x1="1" y1="9" x2="23" y2="9" style="fill: none; stroke: rgb(105, 150, 199); stroke-linecap: round; stroke-linejoin: round; stroke-width: 2px;"/>
    <line class="cls-1" x1="12" y1="5" x2="12" y2="1" style="fill: none; stroke: rgb(105, 150, 199); stroke-linecap: round; stroke-linejoin: round; stroke-width: 2px;"/>
    <line class="cls-1" x1="6" y1="5" x2="6" y2="1" style="fill: none; stroke: rgb(105, 150, 199); stroke-linecap: round; stroke-linejoin: round; stroke-width: 2px;"/>
    <line class="cls-1" x1="18" y1="5" x2="18" y2="1" style="fill: none; stroke: rgb(105, 150, 199); stroke-linecap: round; stroke-linejoin: round; stroke-width: 2px;"/>
    <line class="cls-1" x1="5" y1="14" x2="7" y2="14" style="fill: none; stroke: rgb(105, 150, 199); stroke-linecap: round; stroke-linejoin: round; stroke-width: 2px;"/>
    <line class="cls-1" x1="11" y1="14" x2="13" y2="14" style="fill: none; stroke: rgb(105, 150, 199); stroke-linecap: round; stroke-linejoin: round; stroke-width: 2px;"/>
    <line class="cls-1" x1="17" y1="14" x2="19" y2="14" style="fill: none; stroke: rgb(105, 150, 199); stroke-linecap: round; stroke-linejoin: round; stroke-width: 2px;"/>
    <line class="cls-1" x1="5" y1="18" x2="7" y2="18" style="fill: none; stroke: rgb(105, 150, 199); stroke-linecap: round; stroke-linejoin: round; stroke-width: 2px;"/>
    <line class="cls-1" x1="11" y1="18" x2="13" y2="18" style="fill: none; stroke: rgb(105, 150, 199); stroke-linecap: round; stroke-linejoin: round; stroke-width: 2px;"/>
    <line class="cls-1" x1="17" y1="18" x2="19" y2="18" style="fill: none; stroke: rgb(105, 150, 199); stroke-linecap: round; stroke-linejoin: round; stroke-width: 2px;"/>
  </g>
</svg>