<svg width="528.1724609375px" height="266.03251953125px" xmlns="http://www.w3.org/2000/svg" viewBox="-14.086230468749989 -58.016259765624994 528.1724609375 266.03251953125" style="background: rgba(0, 0, 0, 0);" preserveAspectRatio="xMidYMid"><defs><linearGradient id="editing-gradient-gradient" x1="0" x2="1" y1="0.5" y2="0.5" gradientUnits="objectBoundingBox"><stop offset="0" stop-color="#5e60ce"></stop><stop offset="1" stop-color="#fee440"></stop></linearGradient></defs><g><g transform="translate(56.7100043296814, 120.1349983215332)"><path d="M27.74-6.12L27.74-6.12Q26.93-2.55 25.25-0.61L25.25-0.61L25.25-0.61Q23.56 1.33 19.79 1.33L19.79 1.33L19.79 1.33Q16.63 1.33 15.15 0.26L15.15 0.26L15.15 0.26Q13.67-0.82 13.67-3.37L13.67-3.37L13.67-3.37Q13.67-4.49 13.97-5.51L13.97-5.51L26.42-54.88L26.42-54.88Q26.32-54.88 19.79-54.16L19.79-54.16L19.79-54.16Q11.93-53.55 10.00-53.14L10.00-53.14L10.00-53.14Q7.96-53.86 6.89-55.34L6.89-55.34L6.89-55.34Q5.81-56.81 5.81-58.85L5.81-58.85L5.81-58.85Q5.81-60.49 6.99-61.97L6.99-61.97L6.99-61.97Q8.16-63.44 9.79-64.16L9.79-64.16L9.79-64.16Q14.89-65.18 24.07-65.89L24.07-65.89L24.07-65.89Q33.25-66.61 47.63-67.42L47.63-67.42L47.63-67.42Q54.98-67.73 57.53-68.03L57.53-68.03L57.53-68.03Q59.16-67.32 60.33-65.84L60.33-65.84L60.33-65.84Q61.51-64.36 61.51-62.73L61.51-62.73L61.51-62.73Q61.51-60.89 59.67-59.16L59.67-59.16L59.67-59.16Q57.83-57.43 55.49-56.71L55.49-56.71L37.64-55.79L37.64-55.79Q38.76-55.39 38.76-53.04L38.76-53.04L38.76-53.04Q38.76-51.82 38.56-51.20L38.56-51.20L38.56-51.20Q36.82-43.45 33.81-31.11L33.81-31.11L33.81-31.11Q30.80-18.77 29.78-14.38L29.78-14.38L29.78-14.38Q29.17-11.83 28.66-9.79L28.66-9.79L28.66-9.79Q28.15-7.75 27.74-6.12L27.74-6.12ZM99.45-0.31L99.45-0.31Q99.04 1.43 97.61 2.09L97.61 2.09L97.61 2.09Q96.19 2.75 93.84 2.75L93.84 2.75L93.84 2.75Q86.80 2.75 86.80-0.41L86.80-0.41L87.41-4.28L87.41-4.28Q84.56-2.14 80.68 0L80.68 0L80.68 0Q76.81 2.14 74.26 2.14L74.26 2.14L74.26 2.14Q59.16 2.14 59.16-7.75L59.16-7.75L59.16-7.75Q59.16-24.58 69.26-44.27L69.26-44.27L69.26-44.27Q70.48-46.61 71.86-47.63L71.86-47.63L71.86-47.63Q73.24-48.65 76.60-48.65L76.60-48.65L76.60-48.65Q80.17-48.65 81.96-47.69L81.96-47.69L81.96-47.69Q83.74-46.72 83.74-45.39L83.74-45.39L83.74-45.39Q83.74-45.08 82.62-43.55L82.62-43.55L82.62-43.55Q81.50-42.23 80.68-40.90L80.68-40.90L80.68-40.90Q71.09-24.89 71.09-9.69L71.09-9.69L71.09-9.69Q71.09-8.36 72.11-7.34L72.11-7.34L72.11-7.34Q73.13-6.32 73.95-6.32L73.95-6.32L73.95-6.32Q76.19-6.32 81.55-8.47L81.55-8.47L81.55-8.47Q86.90-10.61 89.76-12.85L89.76-12.85L91.80-21.11L91.80-21.11Q95.47-35.90 96.39-39.27L96.39-39.27L96.39-39.27Q97.51-43.35 99.30-45.95L99.30-45.95L99.30-45.95Q101.08-48.55 104.96-48.55L104.96-48.55L104.96-48.55Q110.36-48.55 110.36-45.29L110.36-45.29L110.36-45.29Q110.36-44.78 110.11-44.01L110.11-44.01L110.11-44.01Q109.85-43.25 109.75-42.74L109.75-42.74L105.67-26.21L105.67-26.21Q100.78-6.53 99.45-0.31L99.45-0.31ZM125.26-3.88L125.26-3.88Q125.15-3.26 124.80-1.48L124.80-1.48L124.80-1.48Q124.44 0.31 123.06 1.02L123.06 1.02L123.06 1.02Q121.69 1.73 118.73 1.73L118.73 1.73L118.73 1.73Q115.36 1.73 113.83 1.02L113.83 1.02L113.83 1.02Q112.30 0.31 112.30-2.04L112.30-2.04L117.20-21.52L117.20-21.52Q121.28-38.35 122.60-42.94L122.60-42.94L120.05-46.00L120.05-46.00Q119.75-46.31 119.75-46.72L119.75-46.72L119.75-46.72Q119.75-47.74 121.99-48.40L121.99-48.40L121.99-48.40Q124.24-49.06 128.21-49.06L128.21-49.06L128.21-49.06Q131.78-49.06 133.01-47.07L133.01-47.07L133.01-47.07Q134.23-45.08 134.54-41.92L134.54-41.92L133.82-39.27L133.82-39.27Q137.09-43.25 141.42-45.85L141.42-45.85L141.42-45.85Q145.76-48.45 149.12-48.45L149.12-48.45L149.12-48.45Q153.51-48.45 155.96-46.92L155.96-46.92L155.96-46.92Q158.41-45.39 158.41-42.94L158.41-42.94L158.41-42.94Q158.41-40.80 156.93-38.51L156.93-38.51L156.93-38.51Q155.45-36.21 153.20-34.63L153.20-34.63L153.20-34.63Q150.96-33.05 148.82-32.84L148.82-32.84L148.82-32.84Q146.78-32.84 146.06-33.35L146.06-33.35L146.06-33.35Q145.35-33.86 145.35-34.88L145.35-34.88L145.96-38.25L145.96-38.25Q137.80-36.01 131.17-27.44L131.17-27.44L125.26-3.88ZM161.67-46.61L161.67-46.61Q161.36-46.92 161.36-47.33L161.36-47.33L161.36-47.33Q161.36-48.35 163.61-49.01L163.61-49.01L163.61-49.01Q165.85-49.67 169.83-49.67L169.83-49.67L169.83-49.67Q173.50-49.67 175.24-47.79L175.24-47.79L175.24-47.79Q176.97-45.90 177.28-43.25L177.28-43.25L175.44-36.62L175.44-36.62Q177.58-39.58 181.46-42.28L181.46-42.28L181.46-42.28Q185.33-44.98 189.31-46.61L189.31-46.61L189.31-46.61Q193.29-48.25 195.84-48.25L195.84-48.25L195.84-48.25Q201.25-48.25 203.69-46.26L203.69-46.26L203.69-46.26Q206.14-44.27 206.14-39.98L206.14-39.98L206.14-39.98Q200.12-24.28 198.19-6.12L198.19-6.12L199.61-1.12L199.61-1.12Q198.39 1.22 196.20 2.60L196.20 2.60L196.20 2.60Q194.00 3.98 189.82 3.98L189.82 3.98L189.82 3.98Q187.37 3.98 186.25 2.35L186.25 2.35L186.25 2.35Q185.13 0.71 185.13-1.73L185.13-1.73L185.13-1.73Q185.13-8.57 187.12-16.78L187.12-16.78L187.12-16.78Q189.11-24.99 191.76-33.56L191.76-33.56L191.76-33.56Q192.78-36.82 192.78-36.92L192.78-36.92L192.78-36.92Q192.78-38.35 191.15-38.35L191.15-38.35L191.15-38.35Q188.90-38.35 184.37-35.19L184.37-35.19L184.37-35.19Q179.83-32.03 175.03-24.53L175.03-24.53L175.03-24.53Q170.24-17.03 167.28-4.90L167.28-4.90L167.28-4.90Q167.08-4.28 166.77-2.65L166.77-2.65L166.77-2.65Q166.46-1.02 165.14-0.36L165.14-0.36L165.14-0.36Q163.81 0.31 160.85 0.31L160.85 0.31L160.85 0.31Q157.49 0.31 155.91-0.41L155.91-0.41L155.91-0.41Q154.33-1.12 154.33-3.47L154.33-3.47L154.33-3.47Q154.63-4.90 155.24-6.94L155.24-6.94L155.24-6.94Q161.16-30.70 164.32-43.55L164.32-43.55L161.67-46.61ZM252.76-22.64L252.76-22.64Q239.39-20.40 231.44-18.56L231.44-18.56L231.44-18.56Q228.99-14.69 228.28-13.36L228.28-13.36L228.28-13.36Q226.13-9.59 224.45-7.09L224.45-7.09L224.45-7.09Q222.77-4.59 220.83-2.65L220.83-2.65L220.83-2.65Q218.69-0.51 217.31 0.41L217.31 0.41L217.31 0.41Q215.93 1.33 214.10 1.33L214.10 1.33L214.10 1.33Q211.04 1.33 208.74-0.05L208.74-0.05L208.74-0.05Q206.45-1.43 206.45-2.86L206.45-2.86L206.45-2.86Q206.65-3.06 208.69-7.40L208.69-7.40L208.69-7.40Q210.73-11.73 216.24-18.26L216.24-18.26L216.24-18.26Q216.24-19.07 215.73-20.30L215.73-20.30L215.73-20.30Q215.22-21.52 215.22-21.73L215.22-21.73L215.22-21.73Q215.22-24.68 224.50-28.87L224.50-28.87L224.50-28.87Q229.70-36.62 235.47-44.17L235.47-44.17L235.47-44.17Q241.23-51.71 249.59-62.02L249.59-62.02L249.59-62.02Q251.63-64.57 254.80-66.20L254.80-66.20L254.80-66.20Q257.96-67.83 261.12-67.83L261.12-67.83L261.12-67.83Q264.38-67.83 266.02-67.22L266.02-67.22L266.02-67.22Q267.65-66.61 268.11-65.59L268.11-65.59L268.11-65.59Q268.57-64.57 268.57-62.73L268.57-62.73L268.57-62.73Q268.16-59.67 268.06-58.14L268.06-58.14L268.06-58.14Q266.53-45.80 265.76-36.98L265.76-36.98L265.76-36.98Q265.00-28.15 265.00-19.38L265.00-19.38L265.00-19.38Q265.00-11.32 265.71-4.59L265.71-4.59L265.71-4.59Q265.40-2.14 263.57-0.15L263.57-0.15L263.57-0.15Q261.73 1.84 259.28 1.84L259.28 1.84L259.28 1.84Q254.59 1.84 253.11-0.51L253.11-0.51L253.11-0.51Q251.63-2.86 251.63-8.47L251.63-8.47L251.63-8.47Q251.63-12.55 252.76-22.64L252.76-22.64ZM239.50-30.29L239.50-30.29Q241.33-30.70 245.11-31.21L245.11-31.21L253.27-32.44L253.27-32.44Q254.18-46.61 255.41-52.84L255.41-52.84L255.41-52.84Q251.43-48.14 239.50-30.29L239.50-30.29ZM288.46-4.49L288.46-4.49Q288.35-3.88 285.75 6.68L285.75 6.68L285.75 6.68Q283.15 17.24 282.13 19.99L282.13 19.99L282.13 19.99Q281.72 21.11 279.68 21.68L279.68 21.68L279.68 21.68Q277.64 22.24 276.73 22.24L276.73 22.24L276.73 22.24Q274.48 22.24 273.00 20.81L273.00 20.81L273.00 20.81Q271.52 19.38 271.42 16.52L271.42 16.52L278.56-12.75L278.56-12.75Q282.64-28.76 285.29-40.09L285.29-40.09L285.29-40.09Q285.29-40.70 284.58-43.35L284.58-43.35L284.58-43.35Q284.27-44.98 283.97-46.41L283.97-46.41L283.97-46.41Q283.66-47.84 283.56-48.55L283.56-48.55L283.56-48.55Q283.76-49.88 285.65-50.69L285.65-50.69L285.65-50.69Q287.54-51.51 289.17-51.51L289.17-51.51L289.17-51.51Q291.62-51.51 294.02-49.78L294.02-49.78L294.02-49.78Q296.41-48.04 296.72-45.59L296.72-45.59L296.41-42.94L296.41-42.94Q301.00-48.65 308.14-48.65L308.14-48.65L308.14-48.65Q313.96-48.65 318.19-45.85L318.19-45.85L318.19-45.85Q322.42-43.04 324.67-38.30L324.67-38.30L324.67-38.30Q326.91-33.56 326.91-27.85L326.91-27.85L326.91-27.85Q326.91-20.20 323.95-13.46L323.95-13.46L323.95-13.46Q320.99-6.73 315.08-2.60L315.08-2.60L315.08-2.60Q309.16 1.53 300.80 1.53L300.80 1.53L300.80 1.53Q298.15 1.53 293.96-0.26L293.96-0.26L293.96-0.26Q289.78-2.04 288.46-4.49L288.46-4.49ZM291.62-17.44L291.62-17.44Q291.41-16.22 291.41-15.71L291.41-15.71L291.41-15.71Q291.52-13.16 293.10-11.22L293.10-11.22L293.10-11.22Q294.68-9.28 296.82-8.21L296.82-8.21L296.82-8.21Q298.96-7.14 300.39-7.14L300.39-7.14L300.39-7.14Q304.88-7.14 308.30-10.56L308.30-10.56L308.30-10.56Q311.71-13.97 313.55-19.02L313.55-19.02L313.55-19.02Q315.38-24.07 315.38-28.66L315.38-28.66L315.38-28.66Q315.38-32.95 313.09-36.26L313.09-36.26L313.09-36.26Q310.79-39.58 307.33-39.58L307.33-39.58L307.33-39.58Q303.45-39.58 300.95-37.89L300.95-37.89L300.95-37.89Q298.45-36.21 295.29-32.74L295.29-32.74L291.62-17.44ZM342.31-4.49L342.31-4.49Q342.21-3.88 339.61 6.68L339.61 6.68L339.61 6.68Q337.01 17.24 335.99 19.99L335.99 19.99L335.99 19.99Q335.58 21.11 333.54 21.68L333.54 21.68L333.54 21.68Q331.50 22.24 330.58 22.24L330.58 22.24L330.58 22.24Q328.34 22.24 326.86 20.81L326.86 20.81L326.86 20.81Q325.38 19.38 325.28 16.52L325.28 16.52L332.42-12.75L332.42-12.75Q336.50-28.76 339.15-40.09L339.15-40.09L339.15-40.09Q339.15-40.70 338.44-43.35L338.44-43.35L338.44-43.35Q338.13-44.98 337.82-46.41L337.82-46.41L337.82-46.41Q337.52-47.84 337.42-48.55L337.42-48.55L337.42-48.55Q337.62-49.88 339.51-50.69L339.51-50.69L339.51-50.69Q341.39-51.51 343.03-51.51L343.03-51.51L343.03-51.51Q345.47-51.51 347.87-49.78L347.87-49.78L347.87-49.78Q350.27-48.04 350.57-45.59L350.57-45.59L350.27-42.94L350.27-42.94Q354.86-48.65 362.00-48.65L362.00-48.65L362.00-48.65Q367.81-48.65 372.05-45.85L372.05-45.85L372.05-45.85Q376.28-43.04 378.52-38.30L378.52-38.30L378.52-38.30Q380.77-33.56 380.77-27.85L380.77-27.85L380.77-27.85Q380.77-20.20 377.81-13.46L377.81-13.46L377.81-13.46Q374.85-6.73 368.93-2.60L368.93-2.60L368.93-2.60Q363.02 1.53 354.65 1.53L354.65 1.53L354.65 1.53Q352.00 1.53 347.82-0.26L347.82-0.26L347.82-0.26Q343.64-2.04 342.31-4.49L342.31-4.49ZM345.47-17.44L345.47-17.44Q345.27-16.22 345.27-15.71L345.27-15.71L345.27-15.71Q345.37-13.16 346.95-11.22L346.95-11.22L346.95-11.22Q348.53-9.28 350.68-8.21L350.68-8.21L350.68-8.21Q352.82-7.14 354.25-7.14L354.25-7.14L354.25-7.14Q358.73-7.14 362.15-10.56L362.15-10.56L362.15-10.56Q365.57-13.97 367.40-19.02L367.40-19.02L367.40-19.02Q369.24-24.07 369.24-28.66L369.24-28.66L369.24-28.66Q369.24-32.95 366.95-36.26L366.95-36.26L366.95-36.26Q364.65-39.58 361.18-39.58L361.18-39.58L361.18-39.58Q357.31-39.58 354.81-37.89L354.81-37.89L354.81-37.89Q352.31-36.21 349.15-32.74L349.15-32.74L345.47-17.44Z" fill="url(#editing-gradient-gradient)"></path></g></g><style>text {
  font-size: 64px;
  font-family: Arial Black;
  dominant-baseline: central;
  text-anchor: middle;
}</style></svg>